<svg width="68" height="68" viewBox="0 0 68 68" fill="none" xmlns="http://www.w3.org/2000/svg">
<rect x="0.716797" width="67.2875" height="67.2875" rx="14.9528" fill="#D9D9D9" fill-opacity="0.6"/>
<path d="M29.9116 45.1858V40.4089C29.9116 39.1984 30.8959 38.215 32.1151 38.2074H36.5919C37.8166 38.2074 38.8094 39.1931 38.8094 40.4089V45.172C38.8093 46.2219 39.6625 47.0751 40.72 47.0828H43.7742C45.2007 47.0864 46.57 46.5264 47.58 45.5263C48.5899 44.5262 49.1575 43.1682 49.1575 41.752V28.1828C49.1575 27.0389 48.6467 25.9537 47.7629 25.2198L37.3868 16.9814C35.5731 15.5404 32.9826 15.5869 31.2226 17.0921L21.0697 25.2198C20.1441 25.9321 19.5908 27.0204 19.5635 28.1828V41.7381C19.5635 44.6899 21.9736 47.0828 24.9467 47.0828H27.9313C28.4404 47.0864 28.93 46.8882 29.2913 46.532C29.6526 46.1759 29.8559 45.6913 29.8558 45.1858H29.9116Z" fill="#1578DA"/>
</svg>
