<svg width="24" height="24" viewBox="0 0 24 24" fill="none" xmlns="http://www.w3.org/2000/svg">
<g id="ic:outline-alternate-email">
<path id="Vector" d="M11.999 1.95009C6.47902 1.95009 1.99902 6.43009 1.99902 11.9501C1.99902 17.4701 6.47902 21.9501 11.999 21.9501H16.999V19.9501H11.999C7.65902 19.9501 3.99902 16.2901 3.99902 11.9501C3.99902 7.61009 7.65902 3.95009 11.999 3.95009C16.339 3.95009 19.999 7.61009 19.999 11.9501V13.3801C19.999 14.1701 19.289 14.9501 18.499 14.9501C17.709 14.9501 16.999 14.1701 16.999 13.3801V11.9501C16.999 9.19009 14.759 6.95009 11.999 6.95009C9.23902 6.95009 6.99902 9.19009 6.99902 11.9501C6.99902 14.7101 9.23902 16.9501 11.999 16.9501C13.379 16.9501 14.639 16.3901 15.539 15.4801C16.189 16.3701 17.309 16.9501 18.499 16.9501C20.469 16.9501 21.999 15.3501 21.999 13.3801V11.9501C21.999 6.43009 17.519 1.95009 11.999 1.95009ZM11.999 14.9501C10.339 14.9501 8.99902 13.6101 8.99902 11.9501C8.99902 10.2901 10.339 8.95009 11.999 8.95009C13.659 8.95009 14.999 10.2901 14.999 11.9501C14.999 13.6101 13.659 14.9501 11.999 14.9501Z" fill="#0B4654" fill-opacity="0.5"/>
</g>
</svg>
