<svg width="68" height="68" viewBox="0 0 68 68" fill="none" xmlns="http://www.w3.org/2000/svg">
<rect width="67.2875" height="67.2875" rx="14.9528" fill="#D9D9D9" fill-opacity="0.6"/>
<path d="M30.5409 37.8762C33.1357 37.6975 35.7424 37.6975 38.3372 37.8762C39.7502 37.9466 41.1565 38.0977 42.5472 38.3286C45.5566 38.8494 47.5212 39.6993 48.3632 41.07C48.9956 42.1398 48.9956 43.4134 48.3632 44.4832C47.5212 45.8539 45.6345 46.7586 42.516 47.2246C41.1264 47.4641 39.7198 47.6199 38.306 47.6907C36.9963 47.814 35.6865 47.814 34.3611 47.814H31.9755C31.4765 47.7592 30.9931 47.7318 30.5254 47.7318C29.1115 47.6696 27.7046 47.5184 26.3154 47.2794C23.306 46.786 21.3413 45.9087 20.4993 44.538C20.1743 44.007 20.0029 43.4138 20.0002 42.8109C19.9936 42.2042 20.1598 41.6057 20.4838 41.07C21.3102 39.6993 23.2748 38.8083 26.3154 38.3286C27.7107 38.0944 29.1224 37.9433 30.5409 37.8762ZM34.4235 17C39.6507 17 43.8882 20.7251 43.8882 25.3203C43.8882 29.9155 39.6507 33.6407 34.4235 33.6407C29.1963 33.6407 24.9588 29.9155 24.9588 25.3203C24.9588 20.7251 29.1963 17 34.4235 17Z" fill="#1578DA"/>
</svg>
