<svg width="24" height="24" viewBox="0 0 24 24" fill="none" xmlns="http://www.w3.org/2000/svg">
<g id="ri:lock-password-fill">
<path id="Vector" d="M18 8.00005H20C20.2652 8.00005 20.5196 8.1054 20.7071 8.29294C20.8946 8.48048 21 8.73483 21 9.00005V21C21 21.2653 20.8946 21.5196 20.7071 21.7072C20.5196 21.8947 20.2652 22 20 22H4C3.73478 22 3.48043 21.8947 3.29289 21.7072C3.10536 21.5196 3 21.2653 3 21V9.00005C3 8.73483 3.10536 8.48048 3.29289 8.29294C3.48043 8.1054 3.73478 8.00005 4 8.00005H6V7.00005C6 5.40875 6.63214 3.88262 7.75736 2.75741C8.88258 1.63219 10.4087 1.00005 12 1.00005C13.5913 1.00005 15.1174 1.63219 16.2426 2.75741C17.3679 3.88262 18 5.40875 18 7.00005V8.00005ZM16 8.00005V7.00005C16 5.93918 15.5786 4.92176 14.8284 4.17162C14.0783 3.42147 13.0609 3.00005 12 3.00005C10.9391 3.00005 9.92172 3.42147 9.17157 4.17162C8.42143 4.92176 8 5.93918 8 7.00005V8.00005H16ZM11 14V16H13V14H11ZM7 14V16H9V14H7ZM15 14V16H17V14H15Z" fill="#0B4654" fill-opacity="0.5"/>
</g>
</svg>
